<?xml version="1.0" standalone="no"?>
<!DOCTYPE svg PUBLIC "-//W3C//DTD SVG 20010904//EN"
 "http://www.w3.org/TR/2001/REC-SVG-20010904/DTD/svg10.dtd">
<svg version="1.0" xmlns="http://www.w3.org/2000/svg"
 width="182.000000pt" height="182.000000pt" viewBox="0 0 182.000000 182.000000"
 preserveAspectRatio="xMidYMid meet">
<metadata>
Created by potrace 1.14, written by Peter Selinger 2001-2017
</metadata>
<g transform="translate(0.000000,182.000000) scale(0.100000,-0.100000)"
fill="#000000" stroke="none">
<path d="M482 1300 c-134 -35 -245 -102 -353 -213 -161 -167 -119 -366 77
-364 62 0 115 19 189 67 64 43 72 46 52 23 -10 -11 -20 -36 -24 -55 -4 -28 -1
-39 18 -57 36 -34 97 -19 166 42 14 12 28 17 42 12 15 -4 34 3 64 22 70 48 70
48 58 25 -8 -15 -6 -23 9 -37 27 -24 51 -13 129 60 46 44 71 61 80 55 18 -10
62 3 114 34 54 32 112 84 104 93 -4 3 -15 -1 -24 -10 -52 -46 -213 -107 -213
-81 0 18 49 70 101 105 90 61 190 90 231 68 27 -14 5 -55 -68 -131 -80 -83
-97 -109 -88 -142 8 -33 31 -46 80 -46 43 0 42 -6 -1 -14 -63 -12 -75 -15
-141 -42 -112 -44 -163 -86 -164 -135 0 -69 124 -103 217 -58 44 21 177 144
245 227 29 35 58 42 58 14 0 -11 9 -27 21 -37 20 -19 21 -18 65 5 24 14 44 28
44 31 0 4 6 9 14 12 9 4 12 0 10 -11 -2 -9 2 -25 10 -35 25 -33 71 -13 148 65
39 38 67 72 64 76 -4 3 -23 -12 -44 -34 -37 -40 -70 -64 -104 -77 -27 -10 -22
4 17 47 19 21 35 45 35 52 0 8 6 24 13 35 10 18 9 23 -12 40 -13 10 -33 19
-45 19 -37 0 -124 -50 -177 -101 -75 -73 -84 -60 -22 33 94 141 118 199 91
226 -14 14 -32 16 -24 3 12 -19 -87 -133 -194 -226 -37 -31 -138 -95 -152 -95
-24 0 0 46 55 105 86 93 108 131 96 164 -25 64 -96 85 -195 56 -140 -40 -242
-138 -205 -196 12 -21 -5 -40 -90 -102 -47 -33 -43 -25 20 45 13 15 22 30 19
34 -3 3 0 17 7 31 12 22 11 28 -1 41 -44 44 -138 10 -231 -83 -47 -47 -61 -67
-57 -83 5 -16 -6 -26 -59 -56 -62 -35 -97 -45 -97 -28 0 14 111 142 183 211
65 63 65 64 50 88 l-16 24 44 -6 c24 -3 52 -8 62 -11 32 -10 17 14 -17 26
-125 41 -348 35 -442 -12 -51 -25 -85 -79 -68 -106 13 -20 45 -27 81 -17 25 6
25 17 -1 21 -7 1 -23 5 -36 9 l-22 7 21 14 c30 22 119 50 179 59 84 11 152 14
157 5 29 -47 -356 -270 -466 -270 -91 0 -118 66 -67 170 61 124 325 325 454
346 40 6 114 -15 114 -33 0 -34 -26 -86 -53 -107 -37 -29 -30 -44 12 -26 53
22 81 58 81 105 0 48 -18 70 -77 91 -49 17 -64 17 -151 -6z m402 -355 c-4 -8
-9 -15 -13 -15 -3 0 -23 -16 -44 -35 -43 -39 -156 -110 -163 -103 -6 7 91 108
104 108 6 0 12 4 14 9 5 14 71 51 90 51 11 0 15 -5 12 -15z m502 -100 c-26
-36 -50 -65 -54 -66 -4 0 -20 -3 -37 -5 l-30 -5 34 28 c19 15 55 49 80 75 25
26 47 45 50 43 2 -2 -18 -34 -43 -70z m324 60 c0 -8 -6 -15 -13 -15 -8 0 -22
-10 -33 -22 -25 -27 -166 -119 -173 -112 -4 3 25 35 63 71 84 80 156 116 156
78z m-441 -207 c-103 -122 -258 -202 -298 -154 -33 39 57 109 219 172 122 47
131 45 79 -18z"/>
<path d="M474 1169 c-25 -28 -8 -54 37 -54 28 0 35 4 37 24 3 15 -3 30 -14 38
-25 18 -38 16 -60 -8z"/>
<path d="M8 605 c-13 -29 3 -55 33 -55 20 0 35 18 24 28 -4 4 -10 2 -12 -5 -7
-18 -33 -3 -33 19 0 16 5 19 25 14 19 -5 23 -3 19 9 -9 24 -43 18 -56 -10z"/>
<path d="M92 621 c-8 -4 -12 -21 -10 -37 2 -23 8 -29 27 -29 31 0 50 28 35 53
-13 20 -34 25 -52 13z m41 -25 c3 -8 0 -20 -8 -26 -11 -9 -16 -7 -24 8 -6 11
-7 22 -4 26 11 11 31 6 36 -8z"/>
<path d="M162 593 c2 -31 7 -39 27 -41 13 -2 28 2 32 10 12 18 11 68 -1 68 -5
0 -10 -13 -10 -29 0 -17 -4 -32 -9 -36 -13 -8 -26 16 -22 43 1 12 -3 22 -9 22
-7 0 -10 -14 -8 -37z"/>
<path d="M240 590 c0 -23 5 -40 11 -40 6 0 9 9 6 20 -3 11 -1 20 4 20 4 0 13
-9 19 -20 17 -32 30 -23 30 21 0 23 -4 38 -10 34 -5 -3 -7 -12 -3 -20 8 -22
-15 -18 -27 5 -17 32 -30 23 -30 -20z"/>
<path d="M328 618 c7 -7 12 -25 12 -40 0 -16 5 -28 13 -28 8 0 13 12 13 33 -1
22 4 32 14 32 10 0 15 -10 14 -32 0 -18 3 -33 8 -33 4 0 8 7 8 15 0 8 5 15 10
15 6 0 13 -7 16 -15 10 -25 24 -17 22 13 -3 42 -14 50 -80 51 -47 0 -59 -2
-50 -11z m106 -19 c-8 -14 -24 -10 -24 6 0 9 6 12 15 9 8 -4 12 -10 9 -15z"/>
<path d="M478 590 c9 -22 21 -40 26 -40 4 0 6 6 3 13 -3 7 1 21 9 32 20 27 17
41 -5 21 -16 -15 -19 -15 -24 -1 -4 8 -11 15 -16 15 -5 0 -2 -18 7 -40z"/>
<path d="M582 618 c-18 -18 -15 -56 7 -63 21 -6 51 3 51 16 0 12 -17 11 -25
-1 -9 -15 -25 -2 -25 22 0 17 4 19 25 14 27 -7 35 8 9 18 -22 8 -28 8 -42 -6z"/>
<path d="M650 592 l0 -41 58 1 c31 1 60 6 64 12 13 19 9 68 -4 63 -7 -2 -12
-15 -10 -29 2 -15 -1 -29 -7 -32 -12 -8 -30 24 -24 41 2 6 -1 14 -6 18 -7 4
-11 -7 -11 -29 0 -29 -4 -36 -20 -36 -12 0 -21 7 -22 18 0 9 -2 22 -2 29 -3
33 -16 21 -16 -15z"/>
<path d="M790 589 c0 -39 1 -40 33 -37 29 3 32 6 29 33 -4 32 -16 45 -44 45
-14 0 -18 -9 -18 -41z m37 15 c-3 -3 -12 -4 -19 -1 -8 3 -5 6 6 6 11 1 17 -2
13 -5z m7 -35 c-8 -14 -24 -10 -24 6 0 9 6 12 15 9 8 -4 12 -10 9 -15z"/>
</g>
</svg>
